<svg id="Capa_1" enable-background="new 0 0 511.387 511.387" height="512" viewBox="0 0 511.387 511.387" width="512" xmlns="http://www.w3.org/2000/svg"><g><path d="m432.545 78.673c0 4.143 3.357 7.5 7.5 7.5s7.5-3.357 7.5-7.5c0-15.714-13.626-28.864-31.685-31.903v-10.659c0-4.143-3.357-7.5-7.5-7.5s-7.5 3.357-7.5 7.5v10.52c-18.525 2.732-32.631 16.056-32.631 32.042 0 15.985 14.105 29.309 32.631 32.041v34.89c-10.07-2.215-17.631-9.013-17.631-16.803 0-4.143-3.357-7.5-7.5-7.5s-7.5 3.357-7.5 7.5c0 15.986 14.105 29.31 32.631 32.042v10.52c0 4.143 3.357 7.5 7.5 7.5s7.5-3.357 7.5-7.5v-10.659c18.059-3.039 31.685-16.189 31.685-31.903s-13.626-28.864-31.685-31.903v-34.804c9.593 2.423 16.685 9.035 16.685 16.579zm-49.316 0c0-7.79 7.561-14.588 17.631-16.803v33.606c-10.069-2.216-17.631-9.013-17.631-16.803zm49.316 50.128c0 7.543-7.092 14.155-16.685 16.578v-33.156c9.593 2.422 16.685 9.034 16.685 16.578z"/><path d="m407.887.236c-57.07 0-103.5 46.43-103.5 103.5s46.43 103.5 103.5 103.5 103.5-46.43 103.5-103.5-46.43-103.5-103.5-103.5zm0 192c-48.799 0-88.5-39.701-88.5-88.5s39.701-88.5 88.5-88.5 88.5 39.701 88.5 88.5-39.701 88.5-88.5 88.5z"/><path d="m323.412 304.372c-2.929-2.927-7.677-2.929-10.607 0l-43.13 43.129c-.001.001-.003.002-.004.003s-.002.003-.004.004l-27.574 27.573c-14.071 14.072-32.779 21.821-52.679 21.821-19.897 0-38.602-7.747-52.674-21.814-.002-.002-.004-.005-.006-.007s-.005-.004-.007-.006c-13.15-13.152-20.868-30.619-21.732-49.182-.192-4.138-3.695-7.298-7.841-7.144-4.138.193-7.336 3.703-7.144 7.841.922 19.798 8.344 38.547 21.044 53.563l-60.215 60.217c-29.602-32.21-45.829-73.79-45.839-117.927-.011-46.681 18.109-90.516 51.024-123.43l22.273-22.273 60.104 60.104-22.274 22.273c-8.541 8.541-15.155 18.504-19.659 29.611-1.557 3.839.293 8.212 4.132 9.769 3.837 1.558 8.213-.294 9.769-4.132 3.746-9.236 9.252-17.527 16.366-24.641l70.711-70.711c2.929-2.93 2.929-7.678 0-10.607l-70.711-70.711c-2.93-2.928-7.678-2.928-10.607 0l-70.711 70.711c-35.748 35.749-55.429 83.353-55.417 134.041.012 50.638 19.676 98.186 55.374 133.906 38.935 39.178 94.466 58.896 149.802 54.085 4.127-.348 7.191-3.976 6.844-8.104-.349-4.127-3.98-7.191-8.104-6.844-49.137 4.136-96.983-12.042-132.46-44.523l60.21-60.209c16.133 13.674 36.362 21.145 57.749 21.145 23.905 0 46.381-9.31 63.286-26.214l22.273-22.273 60.104 60.104-21.161 21.161c-21.172 21.173-47.69 36.663-76.688 44.796-3.988 1.119-6.314 5.259-5.196 9.247 1.106 4.022 5.366 6.317 9.247 5.196 31.471-8.827 60.256-25.644 83.245-48.633l26.455-26.455c.003-.003.007-.006.01-.009s.006-.007.009-.01l43.124-43.124c2.929-2.93 2.929-7.678 0-10.607zm-191.98-170.767 60.104 60.104-32.527 32.526-60.104-60.104zm214.254 279.307-60.104-60.104 32.526-32.526 60.104 60.104z"/><path d="m151.938 109.993c1.919 0 3.839-.732 5.304-2.196l38.185-38.184c2.929-2.93 2.929-7.678 0-10.607-2.93-2.927-7.678-2.929-10.607 0l-38.185 38.184c-2.929 2.93-2.929 7.678 0 10.607 1.464 1.463 3.383 2.196 5.303 2.196z"/><path d="m224.063 179.289c1.919 0 3.839-.732 5.304-2.196l29.698-29.698c2.929-2.93 2.929-7.678 0-10.607-2.93-2.928-7.678-2.928-10.607 0l-29.698 29.698c-2.929 2.93-2.929 7.678 0 10.607 1.464 1.463 3.384 2.196 5.303 2.196z"/><path d="m227.952 104.689c1.919 0 3.839-.732 5.304-2.196l15.202-15.202c2.929-2.93 2.929-7.678 0-10.607-2.93-2.928-7.678-2.928-10.607 0l-15.202 15.202c-2.929 2.93-2.929 7.678 0 10.607 1.464 1.464 3.384 2.196 5.303 2.196z"/><path d="m186.232 138.909c2.93 2.928 7.677 2.928 10.607 0l13.788-13.788c2.929-2.93 2.929-7.678 0-10.607-2.93-2.928-7.678-2.928-10.607 0l-13.788 13.788c-2.928 2.929-2.928 7.677 0 10.607z"/><path d="m442.205 316.392-38.185 38.184c-2.929 2.93-2.929 7.678 0 10.607 2.93 2.928 7.677 2.928 10.607 0l38.186-38.183c2.929-2.93 2.929-7.678 0-10.607-2.93-2.927-7.678-2.929-10.608-.001z"/><path d="m364.423 252.753-29.698 29.698c-2.929 2.93-2.929 7.678 0 10.607 2.93 2.928 7.677 2.928 10.607 0l29.698-29.698c2.929-2.93 2.929-7.678 0-10.607-2.929-2.928-7.677-2.928-10.607 0z"/><path d="m407.557 298.436c1.919 0 3.839-.732 5.303-2.196l22.274-22.273c2.93-2.929 2.93-7.678.001-10.606-2.929-2.93-7.678-2.929-10.606-.001l-22.274 22.273c-2.93 2.929-2.93 7.678-.001 10.606 1.464 1.465 3.383 2.197 5.303 2.197z"/><path d="m372.908 325.586c2.93 2.928 7.677 2.928 10.607 0l6.718-6.718c2.929-2.93 2.929-7.678 0-10.607-2.93-2.928-7.678-2.928-10.607 0l-6.718 6.718c-2.929 2.929-2.929 7.677 0 10.607z"/></g></svg>