<?xml version="1.0"?>
<svg xmlns="http://www.w3.org/2000/svg" id="Capa_1" height="180px" viewBox="0 0 497 497" width="180px" class=""><g><g>
    <g>
      <g>
        <g>
          <path d="m433.159 43.87h-369.318c-24.213 0-43.841 19.628-43.841 43.841v128.289l234.955 20 222.045-20v-128.289c0-24.213-19.628-43.841-43.841-43.841z" fill="#9d66d6" data-original="#406CB5" class="" style="fill:#406CB5" data-old_color="#9d66d6"/>
        </g>
      </g>
      <g>
        <g>
          <path d="m54 216v-128.289c0-5.426 4.415-9.841 9.841-9.841h369.317c5.427 0 9.842 4.415 9.842 9.841v128.289z" fill="#cdafeb" data-original="#87A2D1" class="" style="fill:#87A2D1" data-old_color="#cdafeb"/>
        </g>
      </g>
      <g>
        <g>
          <path d="m433.158 77.87h-30c5.427 0 9.842 4.415 9.842 9.841v128.289h30v-128.289c0-5.426-4.415-9.841-9.842-9.841z" fill="#bd96e4" data-original="#87A2D1" class="" style="fill:#87A2D1" data-old_color="#bd96e4"/>
        </g>
      </g>
      <g>
        <g>
          <path d="m399.24 164.272c-16.315 0-30.891 7.445-40.516 19.123-7.79-11.335-20.841-18.772-35.634-18.772-1.46 0-2.901.075-4.324.216 0-.072.005-.143.005-.216 0-16.876-13.681-30.557-30.557-30.557-16.505 0-29.945 13.087-30.529 29.449-4.281-1.128-8.773-1.736-13.409-1.736-20.181 0-37.691 11.398-46.472 28.102-6.436-5.194-14.39-8.577-23.095-9.38-1.122-15.855-14.33-28.371-30.471-28.371-10.212 0-19.248 5.015-24.797 12.711-5.525-1.977-11.476-3.062-17.682-3.062-28.983 0-52.479 23.496-52.479 52.479s23.496 52.479 52.479 52.479c14.161 0 27.002-5.619 36.443-14.736 7.921 9.029 19.535 14.736 32.489 14.736 14.162 0 26.732-6.812 34.613-17.338 9.605 10.645 23.505 17.338 38.971 17.338 20.731 0 38.65-12.024 47.176-29.477 7.89 8.48 19.141 13.791 31.638 13.791 11.173 0 21.354-4.241 29.025-11.199 8.545 17.398 26.433 29.377 47.125 29.377 28.983 0 52.479-23.496 52.479-52.479.001-28.983-23.495-52.478-52.478-52.478z" fill="#f8e837" data-original="#F8E837" class=""/>
        </g>
      </g>
      <g>
        <g>
          <path d="m433.159 453.13h-28.393l-23.351-10-24.202 10h-217.426l-24.203-10-23.35 10h-28.393c-24.213 0-43.841-19.628-43.841-43.841v-157.289l230.5-10 226.5 10v157.289c0 24.213-19.628 43.841-43.841 43.841z" fill="#9d66d6" data-original="#406CB5" class="" style="fill:#406CB5" data-old_color="#9d66d6"/>
        </g>
      </g>
      <g>
        <g>
          <path d="m447 252v157.289c0 24.213-19.628 43.841-43.841 43.841h30c24.213 0 43.841-19.628 43.841-43.841v-157.289z" fill="#8858b9" data-original="#406CB5" class="" style="fill:#406CB5" data-old_color="#8858b9"/>
        </g>
      </g>
      <g>
        <g>
          <path d="m92.234 241.063h47.553v212.067h-47.553z" fill="#ecd833" data-original="#ECD833" class=""/>
        </g>
      </g>
      <g>
        <g>
          <path d="m357.213 244.246h47.553v208.885h-47.553z" fill="#ecd833" data-original="#ECD833" class=""/>
        </g>
      </g>
      <g>
        <g>
          <path d="m487.902 216.565h-478.804c-5.025 0-9.098 4.074-9.098 9.098v17.238c0 5.026 4.073 9.099 9.098 9.099h478.803c5.025 0 9.098-4.073 9.098-9.098v-17.238c.001-5.025-4.072-9.099-9.097-9.099z" fill="#ecd833" data-original="#ECD833" class=""/>
        </g>
      </g>
      <g>
        <g>
          <path d="m258.851 337.212h-21.791c-14.417 0-26.105-11.688-26.105-26.105v-94.542h74v94.542c0 14.417-11.687 26.105-26.104 26.105z" fill="#dbc92f" data-original="#DBC92F" class=""/>
        </g>
      </g>
      <g>
        <g>
          <path d="m254.955 216.565v94.542c0 13.02-9.533 23.811-22 25.781 1.337.211 2.708.324 4.105.324h21.79c14.417 0 26.105-11.687 26.105-26.105v-94.542z" fill="#cab92b" data-original="#CAB92B" class=""/>
        </g>
      </g>
      <g>
        <g>
          <path d="m247.955 299.517c-4.142 0-7.5-3.358-7.5-7.5v-29.118c0-4.142 3.358-7.5 7.5-7.5s7.5 3.358 7.5 7.5v29.118c0 4.142-3.357 7.5-7.5 7.5z" fill="#744b9c" data-original="#87A2D1" class="" style="fill:#87A2D1" data-old_color="#744b9c"/>
        </g>
      </g>
    </g>
  </g></g> </svg>
